<svg width="32" height="32" viewBox="0 0 32 32" fill="none" xmlns="http://www.w3.org/2000/svg">
    <g clip-path="url(#clip0_33_249)">
    <path fill-rule="evenodd" clip-rule="evenodd" d="M30.2336 0H1.7664C0.7904 0 0 0.7904 0 1.7664V30.2336C0 31.2096 0.7904 32 1.7664 32H17.0912V19.608H12.9216V14.7792H17.0912V11.216C17.0912 7.0816 19.616 4.832 23.304 4.832C25.0704 4.832 26.5872 4.9632 27.0304 5.0224V9.3424H24.4736C22.4672 9.3424 22.08 10.296 22.08 11.6944V14.7776H26.8624L26.2384 19.6064H22.0784V32H30.2336C31.2096 32 32 31.2096 32 30.2336V1.7664C32 0.7904 31.2096 0 30.2336 0Z" fill="#999999"/>
    </g>
    <defs>
    <clipPath id="clip0_33_249">
    <rect width="32" height="32" fill="white"/>
    </clipPath>
    </defs>
    </svg>
    