<svg width="42" height="32" viewBox="0 0 42 32" fill="none" xmlns="http://www.w3.org/2000/svg">
    <g clip-path="url(#clip0_33_263)">
    <path d="M37.8 28H33.6V10.5L21 18L8.4 10.5V28H4.2V4H6.72L21 12.5L35.28 4H37.8M37.8 0H4.2C1.869 0 0 1.78 0 4V28C0 29.0609 0.442499 30.0783 1.23015 30.8284C2.0178 31.5786 3.08609 32 4.2 32H37.8C38.9139 32 39.9822 31.5786 40.7698 30.8284C41.5575 30.0783 42 29.0609 42 28V4C42 2.93913 41.5575 1.92172 40.7698 1.17157C39.9822 0.421427 38.9139 0 37.8 0V0Z" fill="#999999"/>
    </g>
    <defs>
    <clipPath id="clip0_33_263">
    <rect width="42" height="32" fill="white"/>
    </clipPath>
    </defs>
    </svg>
    