<svg width="38" height="32" viewBox="0 0 38 32" fill="none" xmlns="http://www.w3.org/2000/svg">
    <g clip-path="url(#clip0_42_378)">
    <path d="M37.0673 3.76471C35.7373 4.42353 34.3036 4.85647 32.8182 5.06353C34.3382 4.06588 35.5127 2.48471 36.0655 0.583529C34.6318 1.52471 33.0427 2.18353 31.3673 2.56C30.0027 0.941177 28.0855 0 25.9091 0C21.85 0 18.5336 3.61412 18.5336 8.07529C18.5336 8.71529 18.6027 9.33647 18.7236 9.92C12.5746 9.58118 7.0991 6.36235 3.45456 1.48706C2.81547 2.67294 2.45274 4.06588 2.45274 5.53412C2.45274 8.33882 3.74819 10.8235 5.75183 12.2353C4.52547 12.2353 3.38547 11.8588 2.38365 11.2941V11.3506C2.38365 15.2659 4.94001 18.5412 8.32547 19.2753C7.23854 19.5995 6.09745 19.6446 4.99183 19.4071C5.46097 21.0117 6.37976 22.4158 7.61904 23.422C8.85832 24.4281 10.3558 24.9858 11.9009 25.0165C9.28174 27.2761 6.0351 28.4975 2.69456 28.48C2.10728 28.48 1.52001 28.4424 0.932739 28.3671C4.21456 30.6635 8.11819 32 12.2982 32C25.9091 32 33.3882 19.6894 33.3882 9.01647C33.3882 8.65882 33.3882 8.32 33.3709 7.96235C34.8218 6.83294 36.0655 5.40235 37.0673 3.76471V3.76471Z" fill="#999999"/>
    </g>
    <defs>
    <clipPath id="clip0_42_378">
    <rect width="38" height="32" fill="white"/>
    </clipPath>
    </defs>
    </svg>
    