<svg width="115" height="115" viewBox="0 0 115 115" fill="none" xmlns="http://www.w3.org/2000/svg">
    <circle cx="57.5" cy="57.5" r="56" fill="#202020" stroke="#FF7417" stroke-width="3"/>
    <g clip-path="url(#clip0_101_16)">
    <path d="M65.4002 44.6968L58 49.1467L50.5997 44.6968V39.9952L48.4854 38.7395V46.0186L58 51.74L67.5146 46.0186V38.7395L65.4002 39.9952V44.6968Z" fill="#D9D9D9"/>
    <path d="M58 23.177L43.1995 31.381V33.34L58 42.1298L70.6862 34.5957V40.8372H72.8005V31.381L58 23.177ZM68.5718 33.2658L66.4574 34.5214L58 39.5446L49.5425 34.5214L47.4282 33.2658L45.9627 32.3954L58 25.7231L70.0373 32.3954L68.5718 33.2658Z" fill="#D9D9D9"/>
    </g>
    <path d="M51.168 63.48L48.64 64.696L49.248 63.8V79.64L48.64 78.776L51.168 79.8V83H40.768V79.8L43.232 78.808L42.688 79.64V63.8L43.456 64.728L40.768 63.64V60.44L51.168 60.28V63.48ZM59.7493 83L53.1573 63.64L54.6293 64.728L51.8773 63.64V60.44L62.3413 60.28V63.48L59.6213 64.6L60.3893 63.032L64.2613 77.336H63.3653L67.7493 63.448L68.2613 64.696L65.8293 63.64V60.44L74.9493 60.28V63.48L72.2293 64.568L73.6693 63.48L66.7253 83H59.7493Z" fill="#D9D9D9"/>
    <defs>
    <clipPath id="clip0_101_16">
    <rect width="30" height="29" fill="white" transform="translate(43 23)"/>
    </clipPath>
    </defs>
    </svg>
    