<svg width="79" height="79" viewBox="0 0 79 79" fill="none" xmlns="http://www.w3.org/2000/svg">
    <circle cx="39.5" cy="39.5" r="38" fill="#202020" stroke="#FF7417" stroke-width="3"/>
    <path d="M48.75 27.75H52.25V31.25H48.75V27.75ZM48.75 33H52.25V36.5H48.75V33ZM43.5 27.75H47V31.25H43.5V27.75ZM43.5 33H47V36.5H43.5V33Z" fill="#EBEBEB"/>
    <path d="M50.5 40V45.25H29.5V31.25H40V29.5H29.5C29.0359 29.5 28.5908 29.6844 28.2626 30.0126C27.9344 30.3408 27.75 30.7859 27.75 31.25V45.25C27.75 45.7141 27.9344 46.1592 28.2626 46.4874C28.5908 46.8156 29.0359 47 29.5 47H36.5V50.5H33V52.25H47V50.5H43.5V47H50.5C50.9641 47 51.4092 46.8156 51.7374 46.4874C52.0656 46.1592 52.25 45.7141 52.25 45.25V40H50.5ZM41.75 50.5H38.25V47H41.75V50.5Z" fill="#EBEBEB"/>
    </svg>
    