<svg width="79" height="79" viewBox="0 0 79 79" fill="none" xmlns="http://www.w3.org/2000/svg">
    <circle cx="39.5" cy="39.5" r="38" fill="#202020" stroke="#FF7417" stroke-width="3"/>
    <path d="M35.0825 60.7118C38.3174 59.3485 37.6087 55.5897 35.973 53.2136C34.3556 50.7792 32.1202 49.1043 29.8667 47.4878C28.2588 46.4017 26.8231 45.0473 25.614 43.4758C25.1052 42.8331 24.0693 41.645 25.1233 41.4113C26.1956 41.1776 28.0493 42.3072 28.9943 42.7357C30.6481 43.4758 32.2838 44.3327 33.8104 45.3454L35.6459 42.0346C32.8108 40.0286 29.1761 38.2563 25.7958 37.7304C23.8694 37.4188 21.8339 37.8473 21.1797 40.087C20.5981 42.0151 21.525 43.9627 22.579 45.4818C25.0688 49.0458 28.9398 50.7597 31.8294 53.8369C32.4473 54.4796 33.1925 55.2391 33.5559 56.135C33.9376 56.9919 33.8467 57.0504 32.9926 57.0504C30.739 57.0504 27.9221 55.1612 26.0866 53.9148L24.251 57.2257C27.0316 59.0564 31.684 61.9193 35.0825 60.7118ZM51.8205 34.3806L41.516 45.4233H37.3542V40.9634L47.6587 29.9012L51.8205 34.3806ZM57.9995 32.8615C57.9814 33.4457 57.418 34.0495 56.8364 34.6532L52.2567 39.5806L50.6755 37.8862L55.4007 32.842L54.3285 31.6929L53.1108 32.9978L48.949 28.5379L52.8564 24.3506C53.2926 23.8831 54.0013 23.8831 54.4193 24.3506L57.0182 27.1356C57.4543 27.5641 57.4543 28.3431 57.0182 28.8105C56.6365 29.2195 56.273 29.609 56.273 29.9985C56.2367 30.3881 56.6002 30.8165 56.9636 31.1476C57.4907 31.7319 58.0177 32.2772 57.9995 32.8615Z" fill="#EBEBEB"/>
    </svg>
    