<svg width="79" height="79" viewBox="0 0 79 79" fill="none" xmlns="http://www.w3.org/2000/svg">
    <circle cx="39.5" cy="39.5" r="38" fill="#202020" stroke="#FF7417" stroke-width="3"/>
    <path d="M30.6667 28H33.3333V30.6667H30.6667V37.3333C30.6667 38.0406 30.3857 38.7189 29.8856 39.219C29.3855 39.719 28.7072 40 28 40C28.7072 40 29.3855 40.281 29.8856 40.781C30.3857 41.2811 30.6667 41.9594 30.6667 42.6667V49.3333H33.3333V52H30.6667C29.24 51.64 28 50.8 28 49.3333V44C28 43.2928 27.719 42.6145 27.219 42.1144C26.7189 41.6143 26.0406 41.3333 25.3333 41.3333H24V38.6667H25.3333C26.0406 38.6667 26.7189 38.3857 27.219 37.8856C27.719 37.3855 28 36.7072 28 36V30.6667C28 29.9594 28.281 29.2811 28.781 28.781C29.2811 28.281 29.9594 28 30.6667 28ZM49.3333 28C50.0406 28 50.7189 28.281 51.219 28.781C51.719 29.2811 52 29.9594 52 30.6667V36C52 36.7072 52.281 37.3855 52.781 37.8856C53.2811 38.3857 53.9594 38.6667 54.6667 38.6667H56V41.3333H54.6667C53.9594 41.3333 53.2811 41.6143 52.781 42.1144C52.281 42.6145 52 43.2928 52 44V49.3333C52 50.0406 51.719 50.7189 51.219 51.219C50.7189 51.719 50.0406 52 49.3333 52H46.6667V49.3333H49.3333V42.6667C49.3333 41.9594 49.6143 41.2811 50.1144 40.781C50.6145 40.281 51.2928 40 52 40C51.2928 40 50.6145 39.719 50.1144 39.219C49.6143 38.7189 49.3333 38.0406 49.3333 37.3333V30.6667H46.6667V28H49.3333ZM40 44C40.3536 44 40.6928 44.1405 40.9428 44.3905C41.1929 44.6406 41.3333 44.9797 41.3333 45.3333C41.3333 45.687 41.1929 46.0261 40.9428 46.2761C40.6928 46.5262 40.3536 46.6667 40 46.6667C39.6464 46.6667 39.3072 46.5262 39.0572 46.2761C38.8071 46.0261 38.6667 45.687 38.6667 45.3333C38.6667 44.9797 38.8071 44.6406 39.0572 44.3905C39.3072 44.1405 39.6464 44 40 44ZM34.6667 44C35.0203 44 35.3594 44.1405 35.6095 44.3905C35.8595 44.6406 36 44.9797 36 45.3333C36 45.687 35.8595 46.0261 35.6095 46.2761C35.3594 46.5262 35.0203 46.6667 34.6667 46.6667C34.313 46.6667 33.9739 46.5262 33.7239 46.2761C33.4738 46.0261 33.3333 45.687 33.3333 45.3333C33.3333 44.9797 33.4738 44.6406 33.7239 44.3905C33.9739 44.1405 34.313 44 34.6667 44ZM45.3333 44C45.687 44 46.0261 44.1405 46.2761 44.3905C46.5262 44.6406 46.6667 44.9797 46.6667 45.3333C46.6667 45.687 46.5262 46.0261 46.2761 46.2761C46.0261 46.5262 45.687 46.6667 45.3333 46.6667C44.9797 46.6667 44.6406 46.5262 44.3905 46.2761C44.1405 46.0261 44 45.687 44 45.3333C44 44.9797 44.1405 44.6406 44.3905 44.3905C44.6406 44.1405 44.9797 44 45.3333 44Z" fill="#EBEBEB"/>
    </svg>
    